<svg xmlns="http://www.w3.org/2000/svg" id="a41b92f5-9e87-4132-8295-cff6cecebc8f" data-name="Calque 1"
  viewBox="0 0 24 24">
  <title>linkedin</title>
  <g id="fdaa6a67-c3d7-46cd-b6ba-201240dcf1e9" data-name="Groupe 28">
    <g id="a6e05b91-639f-46e8-810c-d4ca6726b02e" data-name="linkedin">
      <path id="a0f9c90e-146c-484a-88c8-136781c19c1c" data-name="linkedin-2"
        d="M22.286,0H1.709A1.722,1.722,0,0,0,0,1.73V22.27A1.722,1.722,0,0,0,1.709,24H22.286A1.727,1.727,0,0,0,24,22.27V1.73A1.727,1.727,0,0,0,22.286,0ZM7.254,20.571H3.7V9.118H7.259V20.571ZM5.475,7.554A2.063,2.063,0,1,1,7.538,5.491h0A2.063,2.063,0,0,1,5.475,7.554ZM20.587,20.571H17.03V15c0-1.329-.027-3.037-1.848-3.037-1.854,0-2.138,1.446-2.138,2.941v5.668H9.488V9.118H12.9v1.564h.048a3.747,3.747,0,0,1,3.37-1.848c3.6,0,4.27,2.373,4.27,5.459Z"
        transform="translate(0)" />
    </g>
  </g>
</svg>