<svg version="1.0" xmlns="http://www.w3.org/2000/svg" width="512.000000pt" height="512.000000pt"
  viewBox="0 0 512.000000 512.000000" preserveAspectRatio="xMidYMid meet">

  <g transform="translate(0.000000,512.000000) scale(0.100000,-0.100000)" stroke="none">
    <path d="M420 4434 c-199 -52 -357 -215 -405 -415 -13 -56 -15 -246 -15 -1459
0 -1537 -3 -1455 63 -1589 42 -87 149 -195 237 -238 135 -68 -29 -63 2260 -63
2286 0 2123 -4 2260 62 86 42 194 150 237 239 66 134 63 52 63 1589 0 1213 -2
1403 -15 1459 -48 204 -206 364 -410 416 -87 22 -4190 22 -4275 -1z m4120
-322 c0 -15 -1876 -1881 -1907 -1896 -18 -9 -50 -16 -73 -16 -23 0 -55 7 -73
16 -31 15 -1907 1881 -1907 1896 0 5 891 8 1980 8 1089 0 1980 -3 1980 -8z
m-2237 -2177 c157 -90 357 -90 514 0 31 18 380 359 1011 989 l962 961 0 -1325
0 -1325 -507 507 c-351 350 -520 512 -545 523 -52 21 -88 19 -138 -8 -72 -38
-108 -128 -80 -204 6 -15 239 -256 518 -535 278 -279 504 -510 501 -513 -3 -3
-895 -4 -1981 -3 l-1976 3 474 449 c487 462 504 481 504 555 0 15 -10 47 -23
71 -40 75 -133 109 -210 76 -18 -7 -246 -216 -507 -465 -261 -248 -478 -451
-482 -451 -5 0 -8 595 -8 1322 l0 1323 963 -961 c630 -630 979 -971 1010 -989z" />
  </g>
</svg>